<?xml version="1.0" encoding="utf-8"?>
<!-- Generator: Adobe Illustrator 26.5.0, SVG Export Plug-In . SVG Version: 6.00 Build 0)  -->
<svg version="1.1" id="Layer_1" xmlns="http://www.w3.org/2000/svg" xmlns:xlink="http://www.w3.org/1999/xlink" x="0px" y="0px"
	 viewBox="0 0 260 260" style="enable-background:new 0 0 260 260;" xml:space="preserve">
<g>
	<path d="M127.9,163.8c14.7,0,25.7-8.2,25.7-20.4c0-11.9-7.3-16.7-15.3-18.6l-11.4-2.8c-5.2-1.4-9.7-3.6-9.7-8.2
		c0-6,5.2-8.4,10.7-8.4c6.5,0,11.4,2.1,14.3,7.7l10.2-4.5c-4.3-10-12.4-13.7-23.5-13.7c-12.9,0-23.9,7.3-23.9,19.9
		c0,11.8,7.1,15.8,16,18.1l11.2,2.7c5.2,1.5,9.2,3.7,9.2,8.7c0,6.2-6.4,8.8-13.1,8.8c-7.5,0-13.6-3.7-16.1-10.1l-11.2,4.4
		C104.4,158.7,115.6,163.8,127.9,163.8"/>
	<polygon points="166,187.7 166,198.1 184.8,198.1 184.8,255 196.9,255 196.9,198.1 218,198.1 218,187.7 	"/>
	<path d="M89.3,51V5H54.7v12.6h21.7v31.5c0,6.8-3.4,12.6-10,12.6c-10,0-11.6-6.2-11.6-11.5v-3.3H42v4.3c0,15.1,9.2,21.7,23.7,21.7
		C80.5,72.9,89.3,62,89.3,51"/>
</g>
</svg>
